[plantuml,MacroCommand.Advanced.Model.puml.png,png]
----
@startuml
!pragma layout smetana

abstract class MacroCommand {
	{field} -actionExecutor : CommandActionExecutor
	{field} -nestedCommandsList : List
	{method} +executeDo ( context : Context ) : void
	{method} +executeUndo ( context : Context ) : void
	{method} +finalCommandResult ( nested : Deque ) : Object
	{method} +fromNest () : Collection
	{method} +rollbackNested ( contexts : Deque ) : Deque
	{method} +toNest ( commands : NestedCommand[] ) : void
}


abstract class ParallelCommandsTask {
	{field} {static} +EXECUTOR_BEAN_NAME : String
	{field} #executor : Executor
	{method} +executeNested ( contexts : Deque , listener : StateChangedListener ) : Deque
	{method} +rollbackNested ( contexts : Deque ) : Deque
}


abstract class SequentialCommandsTask {
	{method} +executeNested ( contexts : Deque , listener : StateChangedListener ) : Deque
	{method} +rollbackNested ( contexts : Deque ) : Deque
	{method} +transferResult ( executedCommand : RootCommand , toTransfer : Object , toExecute : Context ) : void
}




ParallelCommandsTask --|>  MacroCommand
SequentialCommandsTask --|>  MacroCommand

hide fields

@enduml
----